<?xml version="1.0" encoding="UTF-8" standalone="no"?>
<!-- Created with Inkscape (http://www.inkscape.org/) -->

<svg
   width="37.777206mm"
   height="34.295292mm"
   viewBox="0 0 37.777206 34.295292"
   version="1.1"
   id="svg1"
   inkscape:version="1.4 (e7c3feb1, 2024-10-09)"
   sodipodi:docname="SysIDE_logo-light"
   xmlns:inkscape="http://www.inkscape.org/namespaces/inkscape"
   xmlns:sodipodi="http://sodipodi.sourceforge.net/DTD/sodipodi-0.dtd"
   xmlns:xlink="http://www.w3.org/1999/xlink"
   xmlns="http://www.w3.org/2000/svg"
   xmlns:svg="http://www.w3.org/2000/svg">
  <sodipodi:namedview
     id="namedview1"
     pagecolor="#505050"
     bordercolor="#eeeeee"
     borderopacity="1"
     inkscape:showpageshadow="0"
     inkscape:pageopacity="0"
     inkscape:pagecheckerboard="0"
     inkscape:deskcolor="#d1d1d1"
     inkscape:document-units="mm"
     inkscape:zoom="2.2855193"
     inkscape:cx="37.409441"
     inkscape:cy="73.725038"
     inkscape:window-width="1512"
     inkscape:window-height="844"
     inkscape:window-x="0"
     inkscape:window-y="38"
     inkscape:window-maximized="1"
     inkscape:current-layer="layer1" />
  <defs
     id="defs1">
    <linearGradient
       id="linear-gradient"
       x1="1233.72"
       y1="994.84998"
       x2="1233.72"
       y2="930.85999"
       gradientTransform="rotate(180,686.22,530.96)"
       gradientUnits="userSpaceOnUse">
      <stop
         offset="0"
         stop-color="#0197cd"
         id="stop6" />
      <stop
         offset=".06"
         stop-color="#0997c8"
         id="stop7" />
      <stop
         offset=".14"
         stop-color="#1e9aba"
         id="stop8" />
      <stop
         offset=".25"
         stop-color="#429fa4"
         id="stop9" />
      <stop
         offset=".37"
         stop-color="#74a585"
         id="stop10" />
      <stop
         offset=".39"
         stop-color="#7aa682"
         id="stop11" />
      <stop
         offset=".46"
         stop-color="#8ea875"
         id="stop12" />
      <stop
         offset=".61"
         stop-color="#c2b055"
         id="stop13" />
      <stop
         offset=".74"
         stop-color="#f3b738"
         id="stop14" />
    </linearGradient>
    <linearGradient
       id="linear-gradient1"
       x1="-1571.2"
       y1="-1818.24"
       x2="-1571.2"
       y2="-1882.22"
       gradientTransform="translate(1709.93,2014.93)"
       xlink:href="#linear-gradient" />
    <linearGradient
       inkscape:collect="always"
       xlink:href="#linear-gradient"
       id="linearGradient19"
       gradientUnits="userSpaceOnUse"
       gradientTransform="rotate(180,686.22,530.96)"
       x1="1233.72"
       y1="994.84998"
       x2="1233.72"
       y2="930.85999" />
  </defs>
  <g
     inkscape:label="Layer 1"
     inkscape:groupmode="layer"
     id="layer1"
     transform="translate(-974.98959,2210.3292)">
    <g
       id="g29"
       style="display:inline"
       transform="matrix(0.26458333,0,0,0.26458333,957.17519,-2228.0748)">
      <path
         class="st2"
         d="m 67.33,124.65 c 0,-17.54 20.7,-57.58 71.89,-57.58 51.19,0 70.88,39.62 70.88,58.05 0,2.56 -31.44,5.94 -71.05,5.94 -39.61,0 -71.72,-3.85 -71.72,-6.41 z"
         id="path25"
         style="fill:url(#linearGradient19)" />
      <path
         class="st1"
         d="m 210.11,139.11 c 0,17.54 -20.7,57.58 -71.89,57.58 -51.19,0 -70.88,-39.62 -70.88,-58.05 0,-2.56 31.44,-5.94 71.05,-5.94 39.61,0 71.72,3.85 71.72,6.41 z"
         id="path26"
         style="fill:url(#linear-gradient1)" />
      <circle
         class="st9"
         cx="138.72"
         cy="131.39999"
         r="32.27"
         id="circle26"
         style="fill:#ffffff" />
      <path
         class="st3"
         d="m 166.91,115.64 c -3.97,2.5 -8.71,2 -12.38,-1.48 l -0.5,-0.47 -0.5,0.47 c -4.26,4.05 -10,4.05 -14.27,0 l -0.5,-0.47 -0.5,0.47 c -4.27,4.05 -10,4.06 -14.27,0 l -0.5,-0.47 -0.5,0.47 c -3.69,3.5 -8.48,3.97 -12.46,1.42 0.27,-0.48 0.54,-0.94 0.84,-1.41 0.28,-0.46 0.59,-0.92 0.9,-1.36 2.75,1.78 5.88,1.43 8.47,-1.03 l 0.81,-0.76 1.94,-1.84 1.95,1.84 0.81,0.76 c 3.01,2.87 6.75,2.87 9.76,0 l 0.81,-0.76 1.95,-1.84 1.94,1.84 0.81,0.76 c 3.01,2.87 6.76,2.87 9.77,0 l 0.81,-0.76 1.94,-1.84 1.95,1.84 0.81,0.76 c 2.56,2.44 5.66,2.81 8.38,1.08 0.32,0.45 0.62,0.9 0.9,1.36 0.29,0.46 0.57,0.93 0.84,1.41 z"
         id="path27"
         style="fill:#0197cd" />
      <path
         class="st3"
         d="m 162.21,153.55 c -0.51,0.54 -1.05,1.06 -1.6,1.57 -0.5,0.47 -1.02,0.92 -1.55,1.35 -1.6,-0.46 -3.14,-1.36 -4.53,-2.67 l -0.5,-0.47 -0.5,0.47 c -4.26,4.06 -10,4.06 -14.27,0 l -0.5,-0.47 -0.5,0.47 c -4.27,4.06 -10,4.06 -14.27,0 l -0.5,-0.47 -0.5,0.47 c -1.41,1.34 -2.99,2.24 -4.62,2.69 -0.54,-0.44 -1.06,-0.88 -1.56,-1.36 v 0 c -0.56,-0.51 -1.09,-1.04 -1.6,-1.59 1.91,0.21 3.84,-0.5 5.54,-2.11 l 0.8,-0.76 1.95,-1.85 1.95,1.85 0.81,0.76 c 3.01,2.86 6.75,2.86 9.76,0 l 0.81,-0.76 1.95,-1.85 1.95,1.85 0.8,0.76 c 3.01,2.86 6.76,2.86 9.77,0 l 0.8,-0.76 1.95,-1.85 1.95,1.85 0.81,0.76 c 1.66,1.58 3.55,2.29 5.42,2.12 z"
         id="path28"
         style="fill:#0197cd" />
      <path
         class="st3"
         d="m 170.93,133.55 c -0.03,0.57 -0.09,1.13 -0.15,1.7 -0.06,0.57 -0.15,1.13 -0.25,1.7 -2.87,0.35 -5.8,-0.63 -8.25,-2.97 l -0.5,-0.47 -0.5,0.47 c -4.26,4.06 -10,4.06 -14.27,0 l -0.5,-0.47 -0.5,0.47 c -4.27,4.06 -10,4.06 -14.27,0 l -0.5,-0.47 -0.49,0.47 c -4.27,4.06 -10.01,4.06 -14.27,0 l -0.5,-0.47 -0.5,0.47 c -2.55,2.42 -5.61,3.4 -8.59,2.93 -0.1,-0.57 -0.18,-1.15 -0.25,-1.72 -0.07,-0.57 -0.12,-1.14 -0.15,-1.72 2.27,0.72 4.68,0.1 6.73,-1.85 l 0.81,-0.76 1.95,-1.85 1.95,1.85 0.8,0.76 c 3.02,2.86 6.76,2.86 9.77,0 l 0.8,-0.76 1.95,-1.85 1.95,1.85 0.81,0.76 c 3.01,2.86 6.75,2.86 9.76,0 l 0.81,-0.76 1.95,-1.85 1.95,1.85 0.8,0.76 c 3.01,2.86 6.76,2.86 9.77,0 l 0.8,-0.76 1.95,-1.85 1.95,1.85 0.81,0.76 c 1.96,1.86 4.23,2.5 6.4,1.94 z"
         id="path29"
         style="fill:#0197cd" />
    </g>
  </g>
</svg>
