<?xml version="1.0" encoding="UTF-8"?>
<svg id="Layer_1" xmlns="http://www.w3.org/2000/svg" version="1.1" viewBox="0 0 617.04 215.06">
  <!-- Generator: Adobe Illustrator 29.0.0, SVG Export Plug-In . SVG Version: 2.1.0 Build 186)  -->
  <defs>
    <style>
      .st0 {
        fill: #f78e27;
      }
    </style>
  </defs>
  <path class="st0" d="M96.91,134.12c-8.73,0-15.81-1.88-21.25-5.65-5.44-3.77-8.22-9.21-8.34-16.32h19.19c.6,5.02,4.18,7.53,10.76,7.53,2.15,0,4.05-.43,5.69-1.3,1.64-.87,2.47-2.2,2.47-3.99,0-1.97-1.41-3.5-4.21-4.57-1.26-.48-3.92-1.22-7.98-2.24-2.75-.66-4.99-1.26-6.73-1.79-1.73-.54-3.8-1.36-6.19-2.47-2.39-1.11-4.29-2.3-5.69-3.59-1.41-1.28-2.62-2.97-3.63-5.07-1.02-2.09-1.52-4.45-1.52-7.08,0-6.93,2.45-12.04,7.35-15.33,4.9-3.29,11.27-4.93,19.1-4.93,4.66,0,8.85.63,12.55,1.88,3.71,1.26,6.82,3.39,9.33,6.41,2.51,3.02,3.8,6.77,3.86,11.25h-18.56c-.6-3.82-3.32-5.74-8.16-5.74-2.03,0-3.71.42-5.02,1.26-1.32.84-1.97,1.91-1.97,3.23,0,.42.06.79.18,1.12.12.33.33.64.63.94.3.3.61.57.94.81.33.24.79.46,1.39.67.6.21,1.15.4,1.66.58.51.18,1.21.37,2.11.58.9.21,1.69.4,2.38.58.69.18,1.6.39,2.73.63,1.14.24,2.15.48,3.05.72,3.11.78,5.77,1.6,7.98,2.47,2.21.87,4.44,2.06,6.68,3.59,2.24,1.52,3.95,3.5,5.11,5.92,1.17,2.42,1.75,5.24,1.75,8.47,0,6.76-2.62,12.02-7.85,15.78-5.23,3.77-11.82,5.65-19.77,5.65Z"/>
  <path class="st0" d="M154.65,133.85c-7.41,0-13.44-2.27-18.07-6.81-4.63-4.54-6.95-10.34-6.95-17.4s2.27-12.79,6.81-17.4c4.54-4.6,10.4-6.9,17.58-6.9,6.75,0,12.37,2.06,16.86,6.19,5.5,5.08,8.16,12.52,7.98,22.33h-32.64c1.08,5.68,4.06,8.52,8.97,8.52,2.99,0,5.11-1.13,6.37-3.41h16.41c-1.02,4.3-3.92,7.98-8.7,11.03-4.01,2.57-8.88,3.86-14.62,3.86ZM154.38,96.72c-4.48,0-7.2,2.72-8.16,8.16h15.78c-.36-2.57-1.21-4.57-2.56-6.01-1.34-1.43-3.03-2.15-5.07-2.15Z"/>
  <path class="st0" d="M201.46,86.86v6.28h.27c3.77-5.14,8.67-7.71,14.71-7.71,5.2,0,9.18,1.58,11.93,4.75,2.75,3.17,4.12,7.44,4.12,12.82v29.59h-16.95v-25.47c0-5.26-2.12-7.89-6.37-7.89-2.09,0-3.77.82-5.02,2.47-1.26,1.65-1.88,3.72-1.88,6.23v24.66h-16.95v-45.73h16.14Z"/>
  <path class="st0" d="M260.82,134.12c-6.94,0-12.5-1.43-16.68-4.3-4.18-2.87-6.31-6.87-6.37-12.02h16.23c.3,4.01,2.6,6.01,6.9,6.01,3.89,0,5.83-1.31,5.83-3.95,0-1.55-.81-2.65-2.42-3.27-1.61-.63-4.07-1.18-7.35-1.66-.66-.06-1.14-.12-1.43-.18-1.85-.3-3.42-.6-4.71-.9-1.29-.3-2.75-.79-4.39-1.48-1.65-.69-2.96-1.52-3.95-2.51-.99-.99-1.82-2.32-2.51-3.99-.69-1.67-1.03-3.62-1.03-5.83,0-4.54,2-8.12,6.01-10.72,4-2.6,8.94-3.9,14.8-3.9,6.87,0,12.15,1.23,15.83,3.68,3.68,2.45,5.66,5.95,5.96,10.49h-15.96c-.36-2.75-2.27-4.12-5.74-4.12-1.38,0-2.53.28-3.45.85-.93.57-1.39,1.39-1.39,2.47,0,1.14.73,1.94,2.2,2.42,1.46.48,3.87.96,7.22,1.43,2.15.3,3.9.58,5.25.85,1.35.27,2.99.78,4.93,1.52,1.94.75,3.47,1.64,4.57,2.69,1.11,1.05,2.08,2.48,2.91,4.3.84,1.82,1.26,3.96,1.26,6.41,0,5.2-2.08,9.12-6.23,11.75-4.16,2.63-9.58,3.95-16.27,3.95Z"/>
  <path class="st0" d="M289.6,132.59v-45.73h16.14v6.81h.27c3.35-5.5,8.19-8.25,14.53-8.25s10.55,2.66,13,7.98h.27c3.47-5.32,8.46-7.98,14.98-7.98,5.38,0,9.4,1.67,12.06,5.02,2.66,3.35,3.99,7.8,3.99,13.36v28.78h-16.95v-25.65c0-5.14-1.94-7.71-5.83-7.71-2.03,0-3.6.81-4.71,2.42-1.11,1.61-1.66,3.71-1.66,6.28v24.66h-16.95v-25.65c0-5.14-1.94-7.71-5.83-7.71-2.03,0-3.6.81-4.71,2.42-1.11,1.61-1.66,3.71-1.66,6.28v24.66h-16.95Z"/>
  <path class="st0" d="M395.95,133.85c-7.41,0-13.44-2.27-18.07-6.81-4.63-4.54-6.95-10.34-6.95-17.4s2.27-12.79,6.81-17.4c4.54-4.6,10.4-6.9,17.58-6.9,6.75,0,12.37,2.06,16.86,6.19,5.5,5.08,8.16,12.52,7.98,22.33h-32.64c1.08,5.68,4.06,8.52,8.97,8.52,2.99,0,5.11-1.13,6.37-3.41h16.41c-1.02,4.3-3.92,7.98-8.7,11.03-4.01,2.57-8.88,3.86-14.62,3.86ZM395.68,96.72c-4.48,0-7.2,2.72-8.16,8.16h15.78c-.36-2.57-1.21-4.57-2.56-6.01-1.34-1.43-3.03-2.15-5.07-2.15Z"/>
  <path class="st0" d="M423.3,97.08v-10.22h5.92v-14.8h16.59v14.8h8.7v10.22h-8.7v18.56c0,1.43.34,2.51,1.03,3.23.69.72,1.66,1.11,2.91,1.17,1.26.06,2.78.03,4.57-.09v12.46c-2.99.72-5.77,1.08-8.34,1.08-5.8,0-10.04-1.03-12.73-3.09-2.69-2.06-4.04-5.72-4.04-10.99v-22.33h-5.92Z"/>
  <path class="st0" d="M477.28,86.86v6.9h.27c3.35-5.26,7.98-7.89,13.9-7.89,1.26,0,2.18.15,2.78.45v14.44h-.36c-5.02-.84-8.91-.15-11.66,2.06-2.75,2.21-4.12,5.89-4.12,11.03v18.74h-16.95v-45.73h16.14Z"/>
  <path class="st0" d="M503.91,147.75v-13.09h5.65c1.85,0,3.2-.27,4.04-.81.84-.54,1.26-1.4,1.26-2.6,0-.96-.69-3.14-2.06-6.55l-14.62-37.84h17.84l5.65,18.38c.42,1.38.85,2.99,1.3,4.84.45,1.85.79,3.38,1.03,4.57l.36,1.7h.18c.9-4.3,1.82-8.01,2.78-11.12l5.56-18.38h16.86l-15.6,45.73c-1.91,5.56-4.29,9.47-7.13,11.75-2.84,2.27-6.62,3.41-11.34,3.41h-11.75Z"/>
</svg>